<svg xmlns="http://www.w3.org/2000/svg" viewBox="0 0 1200 675" width="1200" height="675" preserveAspectRatio="xMidYMid slice" font-family="sans-serif">
    <defs>
      <linearGradient id="sky" x1="0" y1="0" x2="0" y2="1">
        <stop offset="0" stop-color="#1e293b"/>
        <stop offset="1" stop-color="#4338ca"/>
      </linearGradient>
      <radialGradient id="glow" cx="30%" cy="25%" r="70%">
        <stop offset="0" stop-color="#a5b4fc" stop-opacity="0.55"/>
        <stop offset="1" stop-color="#a5b4fc" stop-opacity="0"/>
      </radialGradient>
    </defs>
    <rect width="1200" height="675" fill="url(#sky)"/>
    <rect width="1200" height="675" fill="url(#glow)"/><circle cx="336.00000000000006" cy="150" r="52" fill="#c7d2fe"/>
    <circle cx="336.00000000000006" cy="150" r="88.39999999999999" fill="#c7d2fe" opacity="0.25"/>
    <circle cx="336.00000000000006" cy="150" r="135.20000000000002" fill="#c7d2fe" opacity="0.12"/><rect x="0" y="280" width="37" height="240" fill="#0f172a" rx="2"/><rect x="6" y="292" width="4" height="6" fill="#fde68a" opacity="0.6778507795883343"/><rect x="30" y="292" width="4" height="6" fill="#fde68a" opacity="0.5633072881959379"/><rect x="18" y="308" width="4" height="6" fill="#fde68a" opacity="0.6558353586355224"/><rect x="30" y="308" width="4" height="6" fill="#fde68a" opacity="0.7314931279746816"/><rect x="30" y="324" width="4" height="6" fill="#fde68a" opacity="0.5428035873686895"/><rect x="6" y="340" width="4" height="6" fill="#fde68a" opacity="0.44344554024282845"/><rect x="18" y="340" width="4" height="6" fill="#fde68a" opacity="0.8352477536303923"/><rect x="30" y="340" width="4" height="6" fill="#fde68a" opacity="0.5229880434693769"/><rect x="6" y="356" width="4" height="6" fill="#fde68a" opacity="0.8521757749607787"/><rect x="18" y="356" width="4" height="6" fill="#fde68a" opacity="0.7989003809401766"/><rect x="30" y="356" width="4" height="6" fill="#fde68a" opacity="0.7665356541750953"/><rect x="6" y="372" width="4" height="6" fill="#fde68a" opacity="0.7082573331193999"/><rect x="30" y="372" width="4" height="6" fill="#fde68a" opacity="0.6498860235791654"/><rect x="30" y="388" width="4" height="6" fill="#fde68a" opacity="0.5474113811273128"/><rect x="18" y="404" width="4" height="6" fill="#fde68a" opacity="0.41863695250358435"/><rect x="30" y="404" width="4" height="6" fill="#fde68a" opacity="0.6282038113335148"/><rect x="30" y="420" width="4" height="6" fill="#fde68a" opacity="0.4594896759139374"/><rect x="30" y="436" width="4" height="6" fill="#fde68a" opacity="0.6880986199015752"/><rect x="6" y="452" width="4" height="6" fill="#fde68a" opacity="0.4052472137613222"/><rect x="18" y="452" width="4" height="6" fill="#fde68a" opacity="0.5563536842586473"/><rect x="30" y="452" width="4" height="6" fill="#fde68a" opacity="0.6915878122439608"/><rect x="6" y="468" width="4" height="6" fill="#fde68a" opacity="0.5367586503038183"/><rect x="18" y="468" width="4" height="6" fill="#fde68a" opacity="0.5943401041207835"/><rect x="18" y="500" width="4" height="6" fill="#fde68a" opacity="0.5730037881061435"/><rect x="30" y="500" width="4" height="6" fill="#fde68a" opacity="0.7356762763578445"/><rect x="46" y="432" width="34" height="88" fill="#0f172a" rx="2"/><rect x="52" y="460" width="4" height="6" fill="#fde68a" opacity="0.7962969741551206"/><rect x="64" y="460" width="4" height="6" fill="#fde68a" opacity="0.8532863917993382"/><rect x="52" y="492" width="4" height="6" fill="#fde68a" opacity="0.6639571629697457"/><rect x="64" y="492" width="4" height="6" fill="#fde68a" opacity="0.6500442088348791"/><rect x="52" y="508" width="4" height="6" fill="#fde68a" opacity="0.7120456991018728"/><rect x="64" y="508" width="4" height="6" fill="#fde68a" opacity="0.48491878339555117"/><rect x="87" y="343" width="29" height="177" fill="#0f172a" rx="2"/><rect x="105" y="403" width="4" height="6" fill="#fde68a" opacity="0.4711285312427208"/><rect x="93" y="419" width="4" height="6" fill="#fde68a" opacity="0.4725934730144218"/><rect x="105" y="419" width="4" height="6" fill="#fde68a" opacity="0.40643720047082754"/><rect x="93" y="435" width="4" height="6" fill="#fde68a" opacity="0.8277295923093334"/><rect x="93" y="451" width="4" height="6" fill="#fde68a" opacity="0.607212487468496"/><rect x="105" y="451" width="4" height="6" fill="#fde68a" opacity="0.6547016241587699"/><rect x="93" y="467" width="4" height="6" fill="#fde68a" opacity="0.6258362963330001"/><rect x="105" y="467" width="4" height="6" fill="#fde68a" opacity="0.8800228709354997"/><rect x="105" y="483" width="4" height="6" fill="#fde68a" opacity="0.4085821544053033"/><rect x="93" y="499" width="4" height="6" fill="#fde68a" opacity="0.8992219110717997"/><rect x="105" y="499" width="4" height="6" fill="#fde68a" opacity="0.6650606954703108"/><rect x="127" y="288" width="33" height="232" fill="#0f172a" rx="2"/><rect x="133" y="300" width="4" height="6" fill="#fde68a" opacity="0.8534328472800553"/><rect x="145" y="300" width="4" height="6" fill="#fde68a" opacity="0.5914846438448876"/><rect x="145" y="316" width="4" height="6" fill="#fde68a" opacity="0.4198866602731869"/><rect x="133" y="332" width="4" height="6" fill="#fde68a" opacity="0.41534407970029863"/><rect x="133" y="348" width="4" height="6" fill="#fde68a" opacity="0.8225040932651609"/><rect x="145" y="348" width="4" height="6" fill="#fde68a" opacity="0.5138846799731255"/><rect x="145" y="364" width="4" height="6" fill="#fde68a" opacity="0.8345953959273175"/><rect x="145" y="380" width="4" height="6" fill="#fde68a" opacity="0.89469328741543"/><rect x="133" y="396" width="4" height="6" fill="#fde68a" opacity="0.5831927122548223"/><rect x="145" y="396" width="4" height="6" fill="#fde68a" opacity="0.41054444466717543"/><rect x="145" y="412" width="4" height="6" fill="#fde68a" opacity="0.8593629179289565"/><rect x="133" y="460" width="4" height="6" fill="#fde68a" opacity="0.5081928081111983"/><rect x="145" y="460" width="4" height="6" fill="#fde68a" opacity="0.8782845623558387"/><rect x="133" y="476" width="4" height="6" fill="#fde68a" opacity="0.40230164790991696"/><rect x="145" y="476" width="4" height="6" fill="#fde68a" opacity="0.8365636621369049"/><rect x="133" y="492" width="4" height="6" fill="#fde68a" opacity="0.6116771639557556"/><rect x="133" y="508" width="4" height="6" fill="#fde68a" opacity="0.7320422319229692"/><rect x="175" y="289" width="27" height="231" fill="#0f172a" rx="2"/><rect x="181" y="301" width="4" height="6" fill="#fde68a" opacity="0.4151528590358794"/><rect x="193" y="301" width="4" height="6" fill="#fde68a" opacity="0.863797566248104"/><rect x="181" y="317" width="4" height="6" fill="#fde68a" opacity="0.6022752771154046"/><rect x="193" y="317" width="4" height="6" fill="#fde68a" opacity="0.5739248775411397"/><rect x="181" y="333" width="4" height="6" fill="#fde68a" opacity="0.7751463810913265"/><rect x="193" y="349" width="4" height="6" fill="#fde68a" opacity="0.8722137656062842"/><rect x="181" y="365" width="4" height="6" fill="#fde68a" opacity="0.4034627134446055"/><rect x="193" y="365" width="4" height="6" fill="#fde68a" opacity="0.7943979409523308"/><rect x="181" y="381" width="4" height="6" fill="#fde68a" opacity="0.5486903938930482"/><rect x="193" y="381" width="4" height="6" fill="#fde68a" opacity="0.42453203033655884"/><rect x="181" y="397" width="4" height="6" fill="#fde68a" opacity="0.8605477240402252"/><rect x="193" y="397" width="4" height="6" fill="#fde68a" opacity="0.5320553733967245"/><rect x="193" y="413" width="4" height="6" fill="#fde68a" opacity="0.4587536363163963"/><rect x="193" y="429" width="4" height="6" fill="#fde68a" opacity="0.6614551244769246"/><rect x="193" y="445" width="4" height="6" fill="#fde68a" opacity="0.46329637800809"/><rect x="193" y="461" width="4" height="6" fill="#fde68a" opacity="0.7793726162984967"/><rect x="181" y="477" width="4" height="6" fill="#fde68a" opacity="0.7557670146692544"/><rect x="215" y="304" width="68" height="216" fill="#0f172a" rx="2"/><rect x="233" y="316" width="4" height="6" fill="#fde68a" opacity="0.4815859757130966"/><rect x="245" y="332" width="4" height="6" fill="#fde68a" opacity="0.5415645382367075"/><rect x="257" y="332" width="4" height="6" fill="#fde68a" opacity="0.4386187953408808"/><rect x="221" y="348" width="4" height="6" fill="#fde68a" opacity="0.629606285574846"/><rect x="257" y="364" width="4" height="6" fill="#fde68a" opacity="0.6853799380827695"/><rect x="221" y="380" width="4" height="6" fill="#fde68a" opacity="0.630657940148376"/><rect x="245" y="380" width="4" height="6" fill="#fde68a" opacity="0.46927853636443617"/><rect x="257" y="380" width="4" height="6" fill="#fde68a" opacity="0.5136086175683886"/><rect x="221" y="396" width="4" height="6" fill="#fde68a" opacity="0.6149558424716816"/><rect x="233" y="396" width="4" height="6" fill="#fde68a" opacity="0.6790029008174315"/><rect x="245" y="396" width="4" height="6" fill="#fde68a" opacity="0.8048745062900707"/><rect x="257" y="396" width="4" height="6" fill="#fde68a" opacity="0.5167269462021068"/><rect x="233" y="412" width="4" height="6" fill="#fde68a" opacity="0.5038118345895782"/><rect x="257" y="412" width="4" height="6" fill="#fde68a" opacity="0.7871025277767331"/><rect x="269" y="412" width="4" height="6" fill="#fde68a" opacity="0.590019650850445"/><rect x="233" y="428" width="4" height="6" fill="#fde68a" opacity="0.5536223717266694"/><rect x="245" y="428" width="4" height="6" fill="#fde68a" opacity="0.5742423818213865"/><rect x="257" y="428" width="4" height="6" fill="#fde68a" opacity="0.8239383620442823"/><rect x="221" y="444" width="4" height="6" fill="#fde68a" opacity="0.5199667209293694"/><rect x="257" y="444" width="4" height="6" fill="#fde68a" opacity="0.6114726977888495"/><rect x="233" y="460" width="4" height="6" fill="#fde68a" opacity="0.7484844143968076"/><rect x="269" y="460" width="4" height="6" fill="#fde68a" opacity="0.5996330667752773"/><rect x="221" y="476" width="4" height="6" fill="#fde68a" opacity="0.4711735165677965"/><rect x="245" y="476" width="4" height="6" fill="#fde68a" opacity="0.4963562211254612"/><rect x="257" y="476" width="4" height="6" fill="#fde68a" opacity="0.6780441268114373"/><rect x="245" y="492" width="4" height="6" fill="#fde68a" opacity="0.5359004497062415"/><rect x="257" y="492" width="4" height="6" fill="#fde68a" opacity="0.6407112875953317"/><rect x="221" y="508" width="4" height="6" fill="#fde68a" opacity="0.4919208546401933"/><rect x="245" y="508" width="4" height="6" fill="#fde68a" opacity="0.7683770538773388"/><rect x="257" y="508" width="4" height="6" fill="#fde68a" opacity="0.7470474239438772"/><rect x="269" y="508" width="4" height="6" fill="#fde68a" opacity="0.6061096394900233"/><rect x="294" y="299" width="34" height="221" fill="#0f172a" rx="2"/><rect x="300" y="311" width="4" height="6" fill="#fde68a" opacity="0.6218841944122687"/><rect x="312" y="311" width="4" height="6" fill="#fde68a" opacity="0.7006336194230244"/><rect x="300" y="327" width="4" height="6" fill="#fde68a" opacity="0.47099332299549135"/><rect x="312" y="327" width="4" height="6" fill="#fde68a" opacity="0.4356067264219746"/><rect x="300" y="343" width="4" height="6" fill="#fde68a" opacity="0.44750780446920546"/><rect x="300" y="375" width="4" height="6" fill="#fde68a" opacity="0.5985110850073397"/><rect x="312" y="375" width="4" height="6" fill="#fde68a" opacity="0.8648227102588862"/><rect x="312" y="391" width="4" height="6" fill="#fde68a" opacity="0.40845564610790464"/><rect x="300" y="407" width="4" height="6" fill="#fde68a" opacity="0.5991242525400594"/><rect x="312" y="407" width="4" height="6" fill="#fde68a" opacity="0.8596598906209693"/><rect x="300" y="423" width="4" height="6" fill="#fde68a" opacity="0.5288267063209787"/><rect x="312" y="423" width="4" height="6" fill="#fde68a" opacity="0.5168687621830031"/><rect x="312" y="439" width="4" height="6" fill="#fde68a" opacity="0.7141818051226437"/><rect x="312" y="455" width="4" height="6" fill="#fde68a" opacity="0.7664422404253856"/><rect x="300" y="471" width="4" height="6" fill="#fde68a" opacity="0.5413399715675041"/><rect x="312" y="487" width="4" height="6" fill="#fde68a" opacity="0.7221592189511284"/><rect x="335" y="426" width="43" height="94" fill="#0f172a" rx="2"/><rect x="353" y="438" width="4" height="6" fill="#fde68a" opacity="0.8316415976500139"/><rect x="365" y="438" width="4" height="6" fill="#fde68a" opacity="0.4015280485386029"/><rect x="365" y="454" width="4" height="6" fill="#fde68a" opacity="0.6265666221501306"/><rect x="341" y="470" width="4" height="6" fill="#fde68a" opacity="0.6931562861194834"/><rect x="365" y="486" width="4" height="6" fill="#fde68a" opacity="0.7266922264592722"/><rect x="341" y="502" width="4" height="6" fill="#fde68a" opacity="0.8268153220182285"/><rect x="353" y="502" width="4" height="6" fill="#fde68a" opacity="0.6274047244573012"/><rect x="365" y="502" width="4" height="6" fill="#fde68a" opacity="0.46172056763898583"/><rect x="384" y="333" width="68" height="187" fill="#0f172a" rx="2"/><rect x="402" y="345" width="4" height="6" fill="#fde68a" opacity="0.583298577205278"/><rect x="426" y="345" width="4" height="6" fill="#fde68a" opacity="0.6176648362074048"/><rect x="414" y="361" width="4" height="6" fill="#fde68a" opacity="0.49016144054476174"/><rect x="438" y="361" width="4" height="6" fill="#fde68a" opacity="0.43519922052510085"/><rect x="414" y="377" width="4" height="6" fill="#fde68a" opacity="0.46103294133208694"/><rect x="426" y="377" width="4" height="6" fill="#fde68a" opacity="0.48930686302483084"/><rect x="390" y="393" width="4" height="6" fill="#fde68a" opacity="0.6747980720596388"/><rect x="402" y="393" width="4" height="6" fill="#fde68a" opacity="0.406125683314167"/><rect x="414" y="393" width="4" height="6" fill="#fde68a" opacity="0.6809069004142657"/><rect x="438" y="393" width="4" height="6" fill="#fde68a" opacity="0.5788345773238689"/><rect x="390" y="409" width="4" height="6" fill="#fde68a" opacity="0.5711427397094667"/><rect x="402" y="409" width="4" height="6" fill="#fde68a" opacity="0.6607921806629747"/><rect x="402" y="425" width="4" height="6" fill="#fde68a" opacity="0.6778783612884581"/><rect x="426" y="425" width="4" height="6" fill="#fde68a" opacity="0.8170193389290944"/><rect x="438" y="425" width="4" height="6" fill="#fde68a" opacity="0.8851857655448839"/><rect x="390" y="441" width="4" height="6" fill="#fde68a" opacity="0.5928030421258882"/><rect x="414" y="441" width="4" height="6" fill="#fde68a" opacity="0.6060745151247829"/><rect x="426" y="441" width="4" height="6" fill="#fde68a" opacity="0.6044631745666266"/><rect x="390" y="457" width="4" height="6" fill="#fde68a" opacity="0.855169866909273"/><rect x="402" y="457" width="4" height="6" fill="#fde68a" opacity="0.8160181864863262"/><rect x="414" y="457" width="4" height="6" fill="#fde68a" opacity="0.723396522202529"/><rect x="438" y="457" width="4" height="6" fill="#fde68a" opacity="0.4100266423542053"/><rect x="402" y="473" width="4" height="6" fill="#fde68a" opacity="0.5053425067802891"/><rect x="414" y="473" width="4" height="6" fill="#fde68a" opacity="0.8296411840477959"/><rect x="438" y="473" width="4" height="6" fill="#fde68a" opacity="0.897775053838268"/><rect x="426" y="489" width="4" height="6" fill="#fde68a" opacity="0.7137057475978509"/><rect x="414" y="505" width="4" height="6" fill="#fde68a" opacity="0.8076957511715591"/><rect x="426" y="505" width="4" height="6" fill="#fde68a" opacity="0.5529411354567856"/><rect x="438" y="505" width="4" height="6" fill="#fde68a" opacity="0.5615484450012446"/><rect x="458" y="330" width="44" height="190" fill="#0f172a" rx="2"/><rect x="464" y="342" width="4" height="6" fill="#fde68a" opacity="0.6551866791909561"/><rect x="476" y="342" width="4" height="6" fill="#fde68a" opacity="0.8716338437283412"/><rect x="488" y="342" width="4" height="6" fill="#fde68a" opacity="0.40854942097794267"/><rect x="464" y="358" width="4" height="6" fill="#fde68a" opacity="0.4475813822122291"/><rect x="464" y="374" width="4" height="6" fill="#fde68a" opacity="0.5576544350245968"/><rect x="476" y="374" width="4" height="6" fill="#fde68a" opacity="0.7837572782067582"/><rect x="464" y="390" width="4" height="6" fill="#fde68a" opacity="0.756309408787638"/><rect x="488" y="390" width="4" height="6" fill="#fde68a" opacity="0.8321371704572812"/><rect x="464" y="406" width="4" height="6" fill="#fde68a" opacity="0.5538611956639216"/><rect x="476" y="406" width="4" height="6" fill="#fde68a" opacity="0.6450246458174661"/><rect x="488" y="406" width="4" height="6" fill="#fde68a" opacity="0.5281231989851222"/><rect x="464" y="422" width="4" height="6" fill="#fde68a" opacity="0.8715737873921171"/><rect x="476" y="422" width="4" height="6" fill="#fde68a" opacity="0.7793632256565616"/><rect x="464" y="454" width="4" height="6" fill="#fde68a" opacity="0.5626916188979522"/><rect x="476" y="454" width="4" height="6" fill="#fde68a" opacity="0.5193310943199322"/><rect x="464" y="470" width="4" height="6" fill="#fde68a" opacity="0.66863614609465"/><rect x="488" y="470" width="4" height="6" fill="#fde68a" opacity="0.729992656246759"/><rect x="476" y="486" width="4" height="6" fill="#fde68a" opacity="0.5129015220794827"/><rect x="464" y="502" width="4" height="6" fill="#fde68a" opacity="0.45785701458808037"/><rect x="488" y="502" width="4" height="6" fill="#fde68a" opacity="0.808297267742455"/><rect x="510" y="391" width="52" height="129" fill="#0f172a" rx="2"/><rect x="540" y="403" width="4" height="6" fill="#fde68a" opacity="0.8140099795768038"/><rect x="516" y="419" width="4" height="6" fill="#fde68a" opacity="0.4636087434832007"/><rect x="528" y="419" width="4" height="6" fill="#fde68a" opacity="0.4734546114690602"/><rect x="552" y="419" width="4" height="6" fill="#fde68a" opacity="0.553955101617612"/><rect x="516" y="435" width="4" height="6" fill="#fde68a" opacity="0.5597015623701737"/><rect x="528" y="435" width="4" height="6" fill="#fde68a" opacity="0.5798710973234847"/><rect x="552" y="435" width="4" height="6" fill="#fde68a" opacity="0.5254624126013369"/><rect x="516" y="451" width="4" height="6" fill="#fde68a" opacity="0.6049745284020901"/><rect x="528" y="451" width="4" height="6" fill="#fde68a" opacity="0.6013998052570969"/><rect x="552" y="451" width="4" height="6" fill="#fde68a" opacity="0.5017080958699808"/><rect x="516" y="467" width="4" height="6" fill="#fde68a" opacity="0.4434635743731633"/><rect x="528" y="467" width="4" height="6" fill="#fde68a" opacity="0.886082234303467"/><rect x="552" y="467" width="4" height="6" fill="#fde68a" opacity="0.5015515099279583"/><rect x="528" y="483" width="4" height="6" fill="#fde68a" opacity="0.8427083978662268"/><rect x="540" y="483" width="4" height="6" fill="#fde68a" opacity="0.4970520320115611"/><rect x="528" y="499" width="4" height="6" fill="#fde68a" opacity="0.85247407106217"/><rect x="574" y="346" width="44" height="174" fill="#0f172a" rx="2"/><rect x="592" y="358" width="4" height="6" fill="#fde68a" opacity="0.8890507602831349"/><rect x="604" y="358" width="4" height="6" fill="#fde68a" opacity="0.4528100250521675"/><rect x="604" y="374" width="4" height="6" fill="#fde68a" opacity="0.5344392719911412"/><rect x="580" y="406" width="4" height="6" fill="#fde68a" opacity="0.7001520680263639"/><rect x="592" y="406" width="4" height="6" fill="#fde68a" opacity="0.6354539514053613"/><rect x="592" y="422" width="4" height="6" fill="#fde68a" opacity="0.8159334728028625"/><rect x="604" y="422" width="4" height="6" fill="#fde68a" opacity="0.8387201312929392"/><rect x="580" y="438" width="4" height="6" fill="#fde68a" opacity="0.6646350415889174"/><rect x="592" y="438" width="4" height="6" fill="#fde68a" opacity="0.6237407271750272"/><rect x="604" y="454" width="4" height="6" fill="#fde68a" opacity="0.8357030232204125"/><rect x="592" y="470" width="4" height="6" fill="#fde68a" opacity="0.8361583343707025"/><rect x="580" y="486" width="4" height="6" fill="#fde68a" opacity="0.7016534304479137"/><rect x="592" y="486" width="4" height="6" fill="#fde68a" opacity="0.4511152147082612"/><rect x="580" y="502" width="4" height="6" fill="#fde68a" opacity="0.6689984538592398"/><rect x="592" y="502" width="4" height="6" fill="#fde68a" opacity="0.8546836211811751"/><rect x="604" y="502" width="4" height="6" fill="#fde68a" opacity="0.7111655944958329"/><rect x="624" y="360" width="71" height="160" fill="#0f172a" rx="2"/><rect x="630" y="372" width="4" height="6" fill="#fde68a" opacity="0.5769649287452921"/><rect x="654" y="372" width="4" height="6" fill="#fde68a" opacity="0.5256528329104185"/><rect x="666" y="372" width="4" height="6" fill="#fde68a" opacity="0.5886094848159701"/><rect x="678" y="372" width="4" height="6" fill="#fde68a" opacity="0.8992428910918534"/><rect x="630" y="388" width="4" height="6" fill="#fde68a" opacity="0.8452839035075158"/><rect x="642" y="388" width="4" height="6" fill="#fde68a" opacity="0.469954845122993"/><rect x="642" y="404" width="4" height="6" fill="#fde68a" opacity="0.5924109121318907"/><rect x="654" y="404" width="4" height="6" fill="#fde68a" opacity="0.8172850176692009"/><rect x="666" y="404" width="4" height="6" fill="#fde68a" opacity="0.7735938353929669"/><rect x="678" y="404" width="4" height="6" fill="#fde68a" opacity="0.7831401155330241"/><rect x="630" y="420" width="4" height="6" fill="#fde68a" opacity="0.8211495600175113"/><rect x="654" y="420" width="4" height="6" fill="#fde68a" opacity="0.5319736734731123"/><rect x="630" y="436" width="4" height="6" fill="#fde68a" opacity="0.42725028374698015"/><rect x="642" y="436" width="4" height="6" fill="#fde68a" opacity="0.5397607984254137"/><rect x="654" y="436" width="4" height="6" fill="#fde68a" opacity="0.5524363214848563"/><rect x="678" y="436" width="4" height="6" fill="#fde68a" opacity="0.6980476100929082"/><rect x="630" y="452" width="4" height="6" fill="#fde68a" opacity="0.5791327025275678"/><rect x="642" y="452" width="4" height="6" fill="#fde68a" opacity="0.6188007747754455"/><rect x="654" y="452" width="4" height="6" fill="#fde68a" opacity="0.8223251838702709"/><rect x="666" y="452" width="4" height="6" fill="#fde68a" opacity="0.8336956269107759"/><rect x="678" y="452" width="4" height="6" fill="#fde68a" opacity="0.47470448291860523"/><rect x="666" y="468" width="4" height="6" fill="#fde68a" opacity="0.5666013236390427"/><rect x="642" y="484" width="4" height="6" fill="#fde68a" opacity="0.5660702243680135"/><rect x="666" y="484" width="4" height="6" fill="#fde68a" opacity="0.8477293633390218"/><rect x="678" y="484" width="4" height="6" fill="#fde68a" opacity="0.535103992652148"/><rect x="654" y="500" width="4" height="6" fill="#fde68a" opacity="0.845165952667594"/><rect x="666" y="500" width="4" height="6" fill="#fde68a" opacity="0.8960419947747141"/><rect x="678" y="500" width="4" height="6" fill="#fde68a" opacity="0.6112803724594414"/><rect x="702" y="443" width="26" height="77" fill="#0f172a" rx="2"/><rect x="720" y="455" width="4" height="6" fill="#fde68a" opacity="0.6976952579338104"/><rect x="708" y="471" width="4" height="6" fill="#fde68a" opacity="0.8524568631313741"/><rect x="720" y="471" width="4" height="6" fill="#fde68a" opacity="0.7345982467290014"/><rect x="708" y="487" width="4" height="6" fill="#fde68a" opacity="0.8110177457332611"/><rect x="720" y="487" width="4" height="6" fill="#fde68a" opacity="0.49435499296523633"/><rect x="708" y="503" width="4" height="6" fill="#fde68a" opacity="0.8140276373364032"/><rect x="720" y="503" width="4" height="6" fill="#fde68a" opacity="0.578273007972166"/><rect x="743" y="444" width="50" height="76" fill="#0f172a" rx="2"/><rect x="773" y="456" width="4" height="6" fill="#fde68a" opacity="0.8349147094180808"/><rect x="761" y="472" width="4" height="6" fill="#fde68a" opacity="0.6241490612505004"/><rect x="773" y="472" width="4" height="6" fill="#fde68a" opacity="0.7066678188042715"/><rect x="785" y="472" width="4" height="6" fill="#fde68a" opacity="0.7438569627469406"/><rect x="749" y="504" width="4" height="6" fill="#fde68a" opacity="0.7985595480771736"/><rect x="761" y="504" width="4" height="6" fill="#fde68a" opacity="0.6086412640055642"/><rect x="785" y="504" width="4" height="6" fill="#fde68a" opacity="0.7605511076748371"/><rect x="808" y="269" width="53" height="251" fill="#0f172a" rx="2"/><rect x="814" y="281" width="4" height="6" fill="#fde68a" opacity="0.846291271946393"/><rect x="838" y="281" width="4" height="6" fill="#fde68a" opacity="0.8459875607863069"/><rect x="826" y="297" width="4" height="6" fill="#fde68a" opacity="0.722976082097739"/><rect x="838" y="297" width="4" height="6" fill="#fde68a" opacity="0.5641554103698582"/><rect x="850" y="297" width="4" height="6" fill="#fde68a" opacity="0.8312230329960585"/><rect x="826" y="313" width="4" height="6" fill="#fde68a" opacity="0.7106146334903315"/><rect x="838" y="313" width="4" height="6" fill="#fde68a" opacity="0.6767950057750568"/><rect x="850" y="313" width="4" height="6" fill="#fde68a" opacity="0.7845456201815978"/><rect x="814" y="329" width="4" height="6" fill="#fde68a" opacity="0.8524705436779186"/><rect x="838" y="329" width="4" height="6" fill="#fde68a" opacity="0.41098258187994363"/><rect x="850" y="329" width="4" height="6" fill="#fde68a" opacity="0.7223914315458387"/><rect x="838" y="345" width="4" height="6" fill="#fde68a" opacity="0.7005230261478573"/><rect x="814" y="361" width="4" height="6" fill="#fde68a" opacity="0.5155271608149633"/><rect x="826" y="361" width="4" height="6" fill="#fde68a" opacity="0.4974562593037263"/><rect x="838" y="361" width="4" height="6" fill="#fde68a" opacity="0.7266395971877501"/><rect x="850" y="361" width="4" height="6" fill="#fde68a" opacity="0.5570340675534681"/><rect x="814" y="377" width="4" height="6" fill="#fde68a" opacity="0.4110380736878142"/><rect x="826" y="377" width="4" height="6" fill="#fde68a" opacity="0.6496134849498049"/><rect x="850" y="377" width="4" height="6" fill="#fde68a" opacity="0.7404579239431769"/><rect x="814" y="393" width="4" height="6" fill="#fde68a" opacity="0.5347393025644124"/><rect x="838" y="393" width="4" height="6" fill="#fde68a" opacity="0.8808239039266482"/><rect x="838" y="409" width="4" height="6" fill="#fde68a" opacity="0.4103417909704149"/><rect x="850" y="409" width="4" height="6" fill="#fde68a" opacity="0.49679964161477985"/><rect x="826" y="425" width="4" height="6" fill="#fde68a" opacity="0.7322414978174493"/><rect x="838" y="425" width="4" height="6" fill="#fde68a" opacity="0.8327853108989075"/><rect x="838" y="441" width="4" height="6" fill="#fde68a" opacity="0.7799442211166024"/><rect x="850" y="441" width="4" height="6" fill="#fde68a" opacity="0.676133029954508"/><rect x="814" y="457" width="4" height="6" fill="#fde68a" opacity="0.559417278598994"/><rect x="838" y="457" width="4" height="6" fill="#fde68a" opacity="0.8452163527021185"/><rect x="850" y="457" width="4" height="6" fill="#fde68a" opacity="0.7226236941991374"/><rect x="814" y="473" width="4" height="6" fill="#fde68a" opacity="0.41445161842275413"/><rect x="838" y="473" width="4" height="6" fill="#fde68a" opacity="0.5214646759908647"/><rect x="826" y="489" width="4" height="6" fill="#fde68a" opacity="0.6203038271982223"/><rect x="838" y="489" width="4" height="6" fill="#fde68a" opacity="0.5112658842466772"/><rect x="850" y="489" width="4" height="6" fill="#fde68a" opacity="0.7418256228324026"/><rect x="814" y="505" width="4" height="6" fill="#fde68a" opacity="0.5875437945127487"/><rect x="826" y="505" width="4" height="6" fill="#fde68a" opacity="0.7421955911908299"/><rect x="838" y="505" width="4" height="6" fill="#fde68a" opacity="0.5517956466414035"/><rect x="850" y="505" width="4" height="6" fill="#fde68a" opacity="0.821659231884405"/><rect x="876" y="271" width="45" height="249" fill="#0f172a" rx="2"/><rect x="882" y="283" width="4" height="6" fill="#fde68a" opacity="0.7154139277758077"/><rect x="894" y="283" width="4" height="6" fill="#fde68a" opacity="0.8357961578061804"/><rect x="882" y="299" width="4" height="6" fill="#fde68a" opacity="0.49217696823179724"/><rect x="894" y="299" width="4" height="6" fill="#fde68a" opacity="0.8611390682402998"/><rect x="882" y="315" width="4" height="6" fill="#fde68a" opacity="0.7973588220542297"/><rect x="894" y="315" width="4" height="6" fill="#fde68a" opacity="0.6260972034418956"/><rect x="882" y="331" width="4" height="6" fill="#fde68a" opacity="0.6184084479231388"/><rect x="894" y="331" width="4" height="6" fill="#fde68a" opacity="0.6662084749899805"/><rect x="906" y="331" width="4" height="6" fill="#fde68a" opacity="0.609630019729957"/><rect x="906" y="347" width="4" height="6" fill="#fde68a" opacity="0.770712528238073"/><rect x="882" y="363" width="4" height="6" fill="#fde68a" opacity="0.8047937192954123"/><rect x="894" y="363" width="4" height="6" fill="#fde68a" opacity="0.8510500326287002"/><rect x="882" y="379" width="4" height="6" fill="#fde68a" opacity="0.5330863990588114"/><rect x="894" y="379" width="4" height="6" fill="#fde68a" opacity="0.7601368759991601"/><rect x="906" y="379" width="4" height="6" fill="#fde68a" opacity="0.5818978389492259"/><rect x="894" y="411" width="4" height="6" fill="#fde68a" opacity="0.5759168534772471"/><rect x="882" y="427" width="4" height="6" fill="#fde68a" opacity="0.6578372198622674"/><rect x="906" y="427" width="4" height="6" fill="#fde68a" opacity="0.8858119663549587"/><rect x="882" y="443" width="4" height="6" fill="#fde68a" opacity="0.4576546454103664"/><rect x="906" y="443" width="4" height="6" fill="#fde68a" opacity="0.603935976838693"/><rect x="894" y="459" width="4" height="6" fill="#fde68a" opacity="0.46823572877328845"/><rect x="882" y="475" width="4" height="6" fill="#fde68a" opacity="0.7166839466430247"/><rect x="894" y="475" width="4" height="6" fill="#fde68a" opacity="0.7112423203419894"/><rect x="906" y="475" width="4" height="6" fill="#fde68a" opacity="0.45842776317149403"/><rect x="933" y="340" width="69" height="180" fill="#0f172a" rx="2"/><rect x="951" y="352" width="4" height="6" fill="#fde68a" opacity="0.5655609388835728"/><rect x="963" y="352" width="4" height="6" fill="#fde68a" opacity="0.6596799458842725"/><rect x="975" y="352" width="4" height="6" fill="#fde68a" opacity="0.4518354391679168"/><rect x="939" y="368" width="4" height="6" fill="#fde68a" opacity="0.4985121132107452"/><rect x="951" y="368" width="4" height="6" fill="#fde68a" opacity="0.421720047458075"/><rect x="963" y="384" width="4" height="6" fill="#fde68a" opacity="0.7965605669654906"/><rect x="987" y="384" width="4" height="6" fill="#fde68a" opacity="0.6903957680100575"/><rect x="951" y="400" width="4" height="6" fill="#fde68a" opacity="0.46008021463640036"/><rect x="987" y="400" width="4" height="6" fill="#fde68a" opacity="0.44418430640362205"/><rect x="951" y="416" width="4" height="6" fill="#fde68a" opacity="0.5426353248534724"/><rect x="987" y="416" width="4" height="6" fill="#fde68a" opacity="0.7738992199068889"/><rect x="951" y="432" width="4" height="6" fill="#fde68a" opacity="0.48652893733233216"/><rect x="975" y="432" width="4" height="6" fill="#fde68a" opacity="0.8066849687369541"/><rect x="987" y="432" width="4" height="6" fill="#fde68a" opacity="0.8380728596588597"/><rect x="939" y="448" width="4" height="6" fill="#fde68a" opacity="0.7450918166199699"/><rect x="963" y="448" width="4" height="6" fill="#fde68a" opacity="0.8574449418578297"/><rect x="939" y="464" width="4" height="6" fill="#fde68a" opacity="0.42329893480055036"/><rect x="951" y="464" width="4" height="6" fill="#fde68a" opacity="0.6963480846956372"/><rect x="963" y="464" width="4" height="6" fill="#fde68a" opacity="0.47147786323912444"/><rect x="975" y="464" width="4" height="6" fill="#fde68a" opacity="0.6353794979862869"/><rect x="939" y="480" width="4" height="6" fill="#fde68a" opacity="0.5450815635034815"/><rect x="987" y="480" width="4" height="6" fill="#fde68a" opacity="0.8512802516110242"/><rect x="939" y="496" width="4" height="6" fill="#fde68a" opacity="0.5317159037571401"/><rect x="963" y="496" width="4" height="6" fill="#fde68a" opacity="0.7658912469400093"/><rect x="975" y="496" width="4" height="6" fill="#fde68a" opacity="0.671785028395243"/><rect x="1017" y="339" width="49" height="181" fill="#0f172a" rx="2"/><rect x="1023" y="351" width="4" height="6" fill="#fde68a" opacity="0.8611937849549577"/><rect x="1047" y="351" width="4" height="6" fill="#fde68a" opacity="0.6919624396599829"/><rect x="1059" y="351" width="4" height="6" fill="#fde68a" opacity="0.528703300608322"/><rect x="1023" y="367" width="4" height="6" fill="#fde68a" opacity="0.8897937858477235"/><rect x="1047" y="367" width="4" height="6" fill="#fde68a" opacity="0.43560783911962064"/><rect x="1059" y="367" width="4" height="6" fill="#fde68a" opacity="0.4208015193929896"/><rect x="1023" y="383" width="4" height="6" fill="#fde68a" opacity="0.812762182415463"/><rect x="1047" y="383" width="4" height="6" fill="#fde68a" opacity="0.5244883427862078"/><rect x="1059" y="399" width="4" height="6" fill="#fde68a" opacity="0.5722271023318172"/><rect x="1023" y="415" width="4" height="6" fill="#fde68a" opacity="0.4876942735631019"/><rect x="1035" y="415" width="4" height="6" fill="#fde68a" opacity="0.8214503555558622"/><rect x="1047" y="415" width="4" height="6" fill="#fde68a" opacity="0.7253257980104536"/><rect x="1023" y="431" width="4" height="6" fill="#fde68a" opacity="0.505644095572643"/><rect x="1035" y="431" width="4" height="6" fill="#fde68a" opacity="0.6865097868489102"/><rect x="1047" y="431" width="4" height="6" fill="#fde68a" opacity="0.6816262621199712"/><rect x="1023" y="447" width="4" height="6" fill="#fde68a" opacity="0.7218450816348195"/><rect x="1035" y="447" width="4" height="6" fill="#fde68a" opacity="0.5474610075820238"/><rect x="1059" y="447" width="4" height="6" fill="#fde68a" opacity="0.878636541753076"/><rect x="1023" y="479" width="4" height="6" fill="#fde68a" opacity="0.5378863967256621"/><rect x="1035" y="479" width="4" height="6" fill="#fde68a" opacity="0.4352125860517845"/><rect x="1047" y="479" width="4" height="6" fill="#fde68a" opacity="0.7997642394388095"/><rect x="1023" y="495" width="4" height="6" fill="#fde68a" opacity="0.5369988073129207"/><rect x="1059" y="495" width="4" height="6" fill="#fde68a" opacity="0.7126742241438478"/><rect x="1035" y="511" width="4" height="6" fill="#fde68a" opacity="0.6712511940626428"/><rect x="1059" y="511" width="4" height="6" fill="#fde68a" opacity="0.8450032436288893"/><rect x="1074" y="366" width="70" height="154" fill="#0f172a" rx="2"/><rect x="1092" y="378" width="4" height="6" fill="#fde68a" opacity="0.625352167384699"/><rect x="1104" y="378" width="4" height="6" fill="#fde68a" opacity="0.4084512601606548"/><rect x="1116" y="378" width="4" height="6" fill="#fde68a" opacity="0.46694799079559746"/><rect x="1092" y="394" width="4" height="6" fill="#fde68a" opacity="0.5253679657820612"/><rect x="1104" y="394" width="4" height="6" fill="#fde68a" opacity="0.485451137740165"/><rect x="1080" y="410" width="4" height="6" fill="#fde68a" opacity="0.8379579974338413"/><rect x="1116" y="410" width="4" height="6" fill="#fde68a" opacity="0.472553054895252"/><rect x="1128" y="410" width="4" height="6" fill="#fde68a" opacity="0.7316755776759237"/><rect x="1080" y="426" width="4" height="6" fill="#fde68a" opacity="0.4901976376771927"/><rect x="1092" y="426" width="4" height="6" fill="#fde68a" opacity="0.6408842949662358"/><rect x="1116" y="426" width="4" height="6" fill="#fde68a" opacity="0.5054739210521803"/><rect x="1080" y="442" width="4" height="6" fill="#fde68a" opacity="0.5529851602390409"/><rect x="1092" y="442" width="4" height="6" fill="#fde68a" opacity="0.7829843283165246"/><rect x="1116" y="442" width="4" height="6" fill="#fde68a" opacity="0.49969131776597353"/><rect x="1128" y="442" width="4" height="6" fill="#fde68a" opacity="0.7924350129673258"/><rect x="1092" y="458" width="4" height="6" fill="#fde68a" opacity="0.4901687296573073"/><rect x="1128" y="458" width="4" height="6" fill="#fde68a" opacity="0.8534378896933049"/><rect x="1080" y="474" width="4" height="6" fill="#fde68a" opacity="0.46292678322643044"/><rect x="1092" y="474" width="4" height="6" fill="#fde68a" opacity="0.4174028996843845"/><rect x="1128" y="474" width="4" height="6" fill="#fde68a" opacity="0.7469905031379312"/><rect x="1080" y="490" width="4" height="6" fill="#fde68a" opacity="0.4845288969576359"/><rect x="1116" y="490" width="4" height="6" fill="#fde68a" opacity="0.7346868851222098"/><rect x="1128" y="490" width="4" height="6" fill="#fde68a" opacity="0.6437116100918502"/><rect x="1104" y="506" width="4" height="6" fill="#fde68a" opacity="0.5934165724087507"/><rect x="1116" y="506" width="4" height="6" fill="#fde68a" opacity="0.5946715856902302"/><rect x="1128" y="506" width="4" height="6" fill="#fde68a" opacity="0.748508627852425"/><rect x="1158" y="385" width="70" height="135" fill="#0f172a" rx="2"/><rect x="1164" y="397" width="4" height="6" fill="#fde68a" opacity="0.573450919915922"/><rect x="1188" y="397" width="4" height="6" fill="#fde68a" opacity="0.635826327232644"/><rect x="1200" y="397" width="4" height="6" fill="#fde68a" opacity="0.7705380288884044"/><rect x="1212" y="397" width="4" height="6" fill="#fde68a" opacity="0.6446206223685295"/><rect x="1164" y="413" width="4" height="6" fill="#fde68a" opacity="0.7323078691028059"/><rect x="1176" y="413" width="4" height="6" fill="#fde68a" opacity="0.5748421450611204"/><rect x="1188" y="413" width="4" height="6" fill="#fde68a" opacity="0.41231133192777636"/><rect x="1164" y="429" width="4" height="6" fill="#fde68a" opacity="0.5263569281436503"/><rect x="1176" y="429" width="4" height="6" fill="#fde68a" opacity="0.7609114966820926"/><rect x="1188" y="429" width="4" height="6" fill="#fde68a" opacity="0.8328347267583013"/><rect x="1200" y="429" width="4" height="6" fill="#fde68a" opacity="0.8562704816926271"/><rect x="1212" y="429" width="4" height="6" fill="#fde68a" opacity="0.49248808352276685"/><rect x="1164" y="445" width="4" height="6" fill="#fde68a" opacity="0.45326308845542373"/><rect x="1176" y="445" width="4" height="6" fill="#fde68a" opacity="0.6962517756968737"/><rect x="1212" y="445" width="4" height="6" fill="#fde68a" opacity="0.5377190430648625"/><rect x="1164" y="461" width="4" height="6" fill="#fde68a" opacity="0.5189442302566022"/><rect x="1176" y="461" width="4" height="6" fill="#fde68a" opacity="0.7318000352010131"/><rect x="1200" y="461" width="4" height="6" fill="#fde68a" opacity="0.8854933918686584"/><rect x="1176" y="477" width="4" height="6" fill="#fde68a" opacity="0.471744971559383"/><rect x="1188" y="477" width="4" height="6" fill="#fde68a" opacity="0.4449056698707864"/><rect x="1200" y="477" width="4" height="6" fill="#fde68a" opacity="0.6036730881081894"/><rect x="1164" y="493" width="4" height="6" fill="#fde68a" opacity="0.8849992960225791"/><rect x="1188" y="493" width="4" height="6" fill="#fde68a" opacity="0.4982229643268511"/><rect x="1212" y="493" width="4" height="6" fill="#fde68a" opacity="0.6472344557754696"/><rect x="0" y="560" width="1200" height="115" fill="#111827"/><rect x="286.1" y="388.8" width="10.5" height="5.2" fill="#6366f1" opacity="0.55" transform="rotate(137 286.1 388.8)"/><rect x="1115.9" y="64.7" width="7.9" height="4.0" fill="#6366f1" opacity="0.92" transform="rotate(186 1115.9 64.7)"/><rect x="570.0" y="281.6" width="6.6" height="3.3" fill="#a5b4fc" opacity="0.70" transform="rotate(225 570.0 281.6)"/><rect x="210.6" y="456.1" width="8.7" height="4.3" fill="#6366f1" opacity="0.84" transform="rotate(151 210.6 456.1)"/><rect x="860.2" y="433.0" width="8.1" height="4.0" fill="#a5b4fc" opacity="0.92" transform="rotate(112 860.2 433.0)"/><rect x="1042.5" y="450.2" width="5.1" height="2.5" fill="#a5b4fc" opacity="0.58" transform="rotate(135 1042.5 450.2)"/><rect x="898.8" y="49.3" width="6.6" height="3.3" fill="#fde68a" opacity="0.71" transform="rotate(223 898.8 49.3)"/><rect x="1143.5" y="73.3" width="8.9" height="4.5" fill="#a5b4fc" opacity="0.94" transform="rotate(171 1143.5 73.3)"/><rect x="97.7" y="303.5" width="6.0" height="3.0" fill="#a5b4fc" opacity="0.57" transform="rotate(73 97.7 303.5)"/><rect x="954.3" y="38.6" width="5.5" height="2.7" fill="#6366f1" opacity="0.68" transform="rotate(314 954.3 38.6)"/><rect x="53.6" y="95.1" width="5.0" height="2.5" fill="#fde68a" opacity="0.61" transform="rotate(150 53.6 95.1)"/><rect x="773.6" y="83.8" width="10.1" height="5.0" fill="#a5b4fc" opacity="0.98" transform="rotate(298 773.6 83.8)"/><rect x="520.0" y="137.9" width="4.4" height="2.2" fill="#a5b4fc" opacity="0.71" transform="rotate(267 520.0 137.9)"/><rect x="1130.1" y="419.1" width="7.1" height="3.6" fill="#6366f1" opacity="0.60" transform="rotate(60 1130.1 419.1)"/><rect x="444.3" y="127.3" width="9.2" height="4.6" fill="#a5b4fc" opacity="0.83" transform="rotate(291 444.3 127.3)"/><rect x="934.5" y="76.3" width="9.6" height="4.8" fill="#fde68a" opacity="0.88" transform="rotate(44 934.5 76.3)"/><rect x="372.8" y="322.2" width="8.7" height="4.4" fill="#fde68a" opacity="0.93" transform="rotate(260 372.8 322.2)"/><rect x="66.2" y="244.4" width="11.0" height="5.5" fill="#a5b4fc" opacity="0.72" transform="rotate(327 66.2 244.4)"/><rect x="433.9" y="90.8" width="5.4" height="2.7" fill="#a5b4fc" opacity="0.52" transform="rotate(203 433.9 90.8)"/><rect x="152.7" y="2.6" width="10.0" height="5.0" fill="#6366f1" opacity="0.95" transform="rotate(190 152.7 2.6)"/><rect x="402.1" y="264.4" width="11.0" height="5.5" fill="#6366f1" opacity="0.78" transform="rotate(106 402.1 264.4)"/><rect x="1196.1" y="331.5" width="9.2" height="4.6" fill="#6366f1" opacity="0.80" transform="rotate(244 1196.1 331.5)"/><rect x="251.8" y="196.2" width="6.1" height="3.1" fill="#fde68a" opacity="0.74" transform="rotate(158 251.8 196.2)"/><rect x="404.9" y="272.4" width="9.1" height="4.6" fill="#fde68a" opacity="0.80" transform="rotate(254 404.9 272.4)"/><rect x="1105.0" y="386.5" width="9.3" height="4.7" fill="#fde68a" opacity="0.70" transform="rotate(91 1105.0 386.5)"/><rect x="1085.1" y="404.2" width="9.2" height="4.6" fill="#6366f1" opacity="0.51" transform="rotate(1 1085.1 404.2)"/><rect x="781.6" y="387.0" width="10.8" height="5.4" fill="#a5b4fc" opacity="0.95" transform="rotate(97 781.6 387.0)"/><rect x="149.7" y="106.6" width="4.7" height="2.3" fill="#fde68a" opacity="0.73" transform="rotate(122 149.7 106.6)"/><rect x="55.3" y="249.2" width="10.6" height="5.3" fill="#6366f1" opacity="0.94" transform="rotate(150 55.3 249.2)"/><rect x="1099.6" y="237.3" width="8.5" height="4.2" fill="#fde68a" opacity="0.65" transform="rotate(331 1099.6 237.3)"/></svg>